SplineFontDB: 3.2
FontName: PaleoHebrew
FullName: Paleo Hebrew
FamilyName: Paleo Hebrew
Weight: Book
Copyright: Paleo Hebrew made by Kris J. Udd. 2021.
Version: 1.2 January 21, 2021
ItalicAngle: 0
UnderlinePosition: -292
UnderlineWidth: 150
Ascent: 1638
Descent: 410
InvalidEm: 0
sfntRevision: 0x00020000
LayerCount: 2
Layer: 0 1 "Back" 1
Layer: 1 1 "Fore" 0
XUID: [1021 969 -1488382883 32085]
StyleMap: 0x0040
FSType: 8
OS2Version: 1
OS2_WeightWidthSlopeOnly: 0
OS2_UseTypoMetrics: 0
CreationTime: 1186333231
ModificationTime: 1611216625
PfmFamily: 17
TTFWeight: 400
TTFWidth: 5
LineGap: 67
VLineGap: 0
Panose: 2 0 0 0 0 0 0 0 0 0
OS2TypoAscent: 1491
OS2TypoAOffset: 0
OS2TypoDescent: -431
OS2TypoDOffset: 0
OS2TypoLinegap: 307
OS2WinAscent: 1854
OS2WinAOffset: 0
OS2WinDescent: 434
OS2WinDOffset: 0
HheadAscent: 1854
HheadAOffset: 0
HheadDescent: -434
HheadDOffset: 0
OS2SubXSize: 1434
OS2SubYSize: 1331
OS2SubXOff: 0
OS2SubYOff: 283
OS2SupXSize: 1434
OS2SupYSize: 1331
OS2SupXOff: 0
OS2SupYOff: 977
OS2StrikeYSize: 102
OS2StrikeYPos: 530
OS2Vendor: 'HL  '
OS2CodePages: 6000019f.dff70000
OS2UnicodeRanges: a00002af.500078fb.00000000.00000000
Lookup: 1 0 0 "Syne-Regular-'aalt' Access All Alternates in Latin lookup 0" { "Syne-Regular-'aalt' Access All Alternates in Latin lookup 0 subtable"  } ['aalt' ('DFLT' <'dflt' > 'latn' <'CAT ' 'MOL ' 'TRK ' 'dflt' > ) ]
Lookup: 3 0 0 "Syne-Regular-'aalt' Access All Alternates in Latin lookup 1" { "Syne-Regular-'aalt' Access All Alternates in Latin lookup 1 subtable"  } ['aalt' ('DFLT' <'dflt' > 'latn' <'CAT ' 'MOL ' 'TRK ' 'dflt' > ) ]
Lookup: 6 0 0 "Syne-Regular-'ccmp' Glyph Composition/Decomposition in Latin lookup 2" { "Syne-Regular-'ccmp' Glyph Composition/Decomposition in Latin lookup 2 contextual 0"  "Syne-Regular-'ccmp' Glyph Composition/Decomposition in Latin lookup 2 contextual 1"  } ['ccmp' ('DFLT' <'dflt' > 'latn' <'CAT ' 'MOL ' 'TRK ' 'dflt' > ) ]

StartChar: f_l
Encoding: 64258 -1 0
Width: 1164
Flags: W
LayerCount: 2
Fore
SplineSet
231 0 m 1,0,-1
 231 941 l 1,1,-1
 61 941 l 1,2,-1
 61 1082 l 1,3,-1
 231 1082 l 1,4,-1
 231 1197 l 2,5,6
 231 1371 231 1371 328 1464 c 128,-1,7
 425 1557 425 1557 603 1557 c 0,8,9
 647 1557 647 1557 713 1548 c 128,-1,10
 779 1539 779 1539 855 1525 c 128,-1,11
 931 1511 931 1511 1003 1496 c 1,12,-1
 1003 0 l 1,13,-1
 816 0 l 1,14,-1
 816 1381 l 1,15,16
 692 1400 692 1400 617 1400 c 0,17,18
 418 1400 418 1400 418 1197 c 2,19,-1
 418 1082 l 1,20,-1
 648 1082 l 1,21,-1
 648 941 l 1,22,-1
 418 941 l 1,23,-1
 418 0 l 1,24,-1
 231 0 l 1,0,-1
EndSplineSet
Validated: 1
EndChar

StartChar: uni05D0
Encoding: 1488 1488 4
Width: 1108
GlyphClass: 2
Flags: W
LayerCount: 2
Fore
SplineSet
817 1134 m 1,0,1
 895 1118 895 1118 869 1015 c 1,2,-1
 511 748 l 1,3,-1
 580 338 l 1,4,-1
 921 201 l 1,5,6
 963 109 963 109 876 78 c 1,7,-1
 601 159 l 1,8,-1
 625 -75 l 1,9,10
 579 -118 579 -118 472 -78 c 1,11,-1
 435 232 l 1,12,-1
 46 406 l 1,13,14
 -50 466 -50 466 15 561 c 1,15,-1
 340 808 l 1,16,-1
 300 1029 l 1,17,18
 301 1125 301 1125 440 1111 c 1,19,-1
 488 908 l 1,20,-1
 817 1134 l 1,0,1
183 515 m 1,21,-1
 402 398 l 1,22,-1
 358 645 l 1,23,-1
 183 515 l 1,21,-1
EndSplineSet
Validated: 33
EndChar

StartChar: uni05D1
Encoding: 1489 1489 5
Width: 1089
GlyphClass: 2
Flags: W
LayerCount: 2
Fore
SplineSet
927 1216 m 2,0,1
 953 1216 953 1216 977 1149 c 1,2,3
 861 614 861 614 676 360 c 1,4,5
 312 -124 312 -124 -76 -306 c 1,6,7
 -132 -284 -132 -284 -126 -241.5 c 128,-1,8
 -120 -199 -120 -199 -90 -156 c 1,9,10
 95 -53 95 -53 374 231 c 1,11,-1
 517 410 l 1,12,13
 247 471 247 471 165 532 c 1,14,15
 -14 641 -14 641 29 745 c 128,-1,16
 72 849 72 849 115 862 c 1,17,18
 211 967 211 967 459 1066 c 128,-1,19
 707 1165 707 1165 891 1216 c 1,20,-1
 927 1216 l 2,0,1
210 749 m 1,21,22
 201 664 201 664 367 618 c 1,23,24
 549 561 549 561 599 561 c 2,25,-1
 624 561 l 1,26,27
 764 828 764 828 793 1037 c 1,28,29
 256 844 256 844 210 749 c 1,21,22
EndSplineSet
Validated: 33
EndChar

StartChar: uni05D2
Encoding: 1490 1490 6
Width: 995
GlyphClass: 2
Flags: W
LayerCount: 2
Fore
SplineSet
550 1105 m 0,0,1
 638 1121 638 1121 647 1071 c 0,2,3
 734 533 734 533 780 8 c 0,4,5
 780 -30 780 -30 710 -61 c 1,6,7
 662 -51 662 -51 612 -32 c 1,8,9
 558 485 558 485 539.5 667.5 c 128,-1,10
 521 850 521 850 473 920 c 1,11,12
 297 878 297 878 38 809 c 1,13,14
 17 809 17 809 3 932 c 0,15,16
 1 977 1 977 47 982 c 1,17,18
 232 1056 232 1056 550 1105 c 0,0,1
EndSplineSet
Validated: 33
EndChar

StartChar: uni05D3
Encoding: 1491 1491 7
Width: 1207
GlyphClass: 2
Flags: W
LayerCount: 2
Fore
SplineSet
851 1076 m 1,0,1
 931 1081 931 1081 918 929 c 0,2,3
 918 908 918 908 751 848 c 1,4,5
 318 607 318 607 252 466 c 1,6,7
 172 308 172 308 369.5 311.5 c 128,-1,8
 567 315 567 315 773 371 c 1,9,10
 712 603 712 603 711 707 c 1,11,12
 728 754 728 754 871 773 c 1,13,14
 912 773 912 773 1054 130 c 1,15,16
 964 45 964 45 865 64 c 1,17,18
 844 120 844 120 830 181 c 1,19,20
 56 73 56 73 16 243 c 1,21,22
 -47 383 -47 383 169 631 c 1,23,24
 367 848 367 848 851 1076 c 1,0,1
EndSplineSet
Validated: 33
EndChar

StartChar: uni05D4
Encoding: 1492 1492 8
Width: 1385
GlyphClass: 2
Flags: W
LayerCount: 2
Fore
SplineSet
950 1117 m 1,0,1
 1074 1118 1074 1118 1011 1003 c 1,2,-1
 942 961 l 1,3,-1
 1216 -86 l 1,4,5
 1170 -215 1170 -215 1066 -127 c 1,6,-1
 935 346 l 1,7,-1
 422 134 l 1,8,9
 299 149 299 149 374 255 c 1,10,-1
 895 488 l 1,11,-1
 857 604 l 1,12,-1
 235 365 l 1,13,14
 107 365 107 365 181 481 c 1,15,-1
 822 746 l 1,16,-1
 778 872 l 1,17,-1
 25 570 l 1,18,19
 -113 590 -113 590 -16 702 c 1,20,-1
 950 1117 l 1,0,1
EndSplineSet
Validated: 33
EndChar

StartChar: uni05D5
Encoding: 1493 1493 9
Width: 659
GlyphClass: 2
Flags: W
LayerCount: 2
Fore
SplineSet
491 1020 m 1,1,2
 457 801 457 801 417 732 c 128,-1,3
 377 663 377 663 310 636 c 1,4,-1
 303 505 l 1,5,6
 270 26 270 26 191 -56 c 1,7,8
 76 -106 76 -106 49 -43 c 1,9,10
 141 244 141 244 155 643 c 1,11,12
 9 694 9 694 9 1000 c 0,13,14
 11 1074 11 1074 68 1066 c 1,15,16
 164 1070 164 1070 164 915 c 1,17,18
 195 782 195 782 237 782 c 1,19,20
 281 764 281 764 313 914 c 1,21,22
 340 1072 340 1072 399 1072 c 1,23,0
 489 1082 489 1082 491 1020 c 1,1,2
EndSplineSet
Validated: 33
EndChar

StartChar: uni05D6
Encoding: 1494 1494 10
Width: 1284
GlyphClass: 2
Flags: W
LayerCount: 2
Fore
SplineSet
971 847 m 1,0,1
 1001 815 1001 815 1001 788 c 0,2,3
 1001 688 1001 688 956 688 c 2,4,-1
 602 680 l 1,5,-1
 639 367 l 1,6,-1
 1023 389 l 1,7,8
 1070 324 1070 324 1076 302 c 0,9,10
 1095 235 1095 235 1060 220 c 1,11,-1
 807 212 l 1,12,-1
 807 205 l 1,13,-1
 799 212 l 1,14,15
 402 198 402 198 60 153 c 1,16,17
 -2 150 -2 150 7 278 c 0,18,19
 7 327 7 327 448 367 c 1,20,-1
 411 673 l 1,21,-1
 -15 650 l 1,22,23
 -86 734 -86 734 -31 792 c 1,24,-1
 401 824 l 1,25,26
 465 872 465 872 537 833 c 1,27,-1
 971 847 l 1,0,1
EndSplineSet
Validated: 33
EndChar

StartChar: uni05D7
Encoding: 1495 1495 11
Width: 1203
GlyphClass: 2
Flags: W
LayerCount: 2
Fore
SplineSet
124 1105 m 1,0,1
 173 1101 173 1101 173 1057 c 1,2,-1
 211 923 l 1,3,4
 418 967 418 967 659 997 c 1,5,6
 695 1070 695 1070 809 1042 c 1,7,8
 841 1042 841 1042 930 631.5 c 128,-1,9
 1019 221 1019 221 1041 29 c 1,10,11
 1019 -31 1019 -31 881 -26 c 1,12,-1
 833 201 l 1,13,14
 546 119 546 119 254 71 c 1,15,16
 211 71 211 71 187 173 c 2,17,-1
 4 1053 l 1,18,19
 22 1095 22 1095 124 1105 c 1,0,1
239 775 m 1,20,-1
 285 562 l 1,21,-1
 739 648 l 1,22,-1
 686 850 l 1,23,-1
 239 775 l 1,20,-1
318 429 m 1,24,-1
 359 260 l 1,25,26
 520 278 520 278 800 357 c 1,27,-1
 762 518 l 1,28,-1
 318 429 l 1,24,-1
EndSplineSet
Validated: 33
EndChar

StartChar: uni05D8
Encoding: 1496 1496 12
Width: 1239
GlyphClass: 2
Flags: W
LayerCount: 2
Fore
SplineSet
966 810 m 1,1,2
 1168 427 1168 427 829 140 c 1,3,4
 677 17 677 17 430 37 c 1,5,6
 229 36 229 36 65 221 c 1,7,8
 -57 394 -57 394 9 613 c 1,9,10
 111 928 111 928 384 999 c 1,11,0
 771 1077 771 1077 966 810 c 1,1,2
361 773 m 1,12,-1
 547 594 l 1,13,-1
 703 774 l 1,14,15
 514 874 514 874 361 773 c 1,12,-1
639 504 m 1,16,-1
 776 334 l 1,17,18
 907 473 907 473 803 690 c 1,19,-1
 639 504 l 1,16,-1
251 679 m 1,20,21
 173 586 173 586 173 467 c 128,-1,22
 173 348 173 348 268 277 c 1,23,-1
 447 482 l 1,24,-1
 251 679 l 1,20,21
667 240 m 1,26,-1
 667 245 l 1,27,-1
 535 389 l 1,28,-1
 387 198 l 1,29,25
 525 165 525 165 667 240 c 1,26,-1
EndSplineSet
Validated: 33
EndChar

StartChar: uni05D9
Encoding: 1497 1497 13
Width: 1414
GlyphClass: 2
Flags: W
LayerCount: 2
Fore
SplineSet
732 1081 m 1,0,1
 933 1073 933 1073 948 997 c 1,2,3
 974 899 974 899 913 699 c 128,-1,4
 852 499 852 499 803.5 324 c 128,-1,5
 755 149 755 149 838 205 c 0,6,7
 884 232 884 232 1122 352 c 1,8,9
 1267 341 1267 341 1204 206 c 1,10,11
 830 10 830 10 779 10 c 1,12,13
 609 -25 609 -25 575 94 c 1,14,15
 639 391 639 391 694 581 c 1,16,17
 403 487 403 487 295 421 c 1,18,-1
 275 421 l 1,19,20
 214 440 214 440 236 556 c 1,21,22
 262 589 262 589 334 608 c 1,23,24
 640 733 640 733 728 755 c 1,25,26
 754 798 754 798 754 875 c 0,27,28
 754 917 754 917 693 917 c 0,29,30
 476 927 476 927 47 731 c 1,31,32
 -27 792 -27 792 -5 866 c 1,33,34
 257 1017 257 1017 668 1075 c 1,35,-1
 732 1081 l 1,0,1
EndSplineSet
Validated: 33
EndChar

StartChar: uni05DA
Encoding: 1498 1498 14
Width: 895
GlyphClass: 2
Flags: W
LayerCount: 2
Fore
SplineSet
784 1073 m 1,1,2
 477 233 477 233 -13 -256 c 1,3,4
 -165 -266 -165 -266 -134 -177 c 1,5,6
 229 270 229 270 375 552 c 1,7,-1
 6 594 l 1,8,9
 -70 675 -70 675 12 746 c 1,10,-1
 432 705 l 1,11,-1
 188 1018 l 1,12,13
 187 1097 187 1097 297 1130 c 1,14,-1
 516 867 l 1,15,16
 558 928 558 928 636 1131 c 1,17,0
 714 1189 714 1189 784 1073 c 1,1,2
EndSplineSet
Validated: 33
EndChar

StartChar: uni05DB
Encoding: 1499 1499 15
Width: 895
GlyphClass: 2
Flags: W
LayerCount: 2
Fore
SplineSet
784 1073 m 1,1,2
 477 233 477 233 -13 -256 c 1,3,4
 -165 -266 -165 -266 -134 -177 c 1,5,6
 229 270 229 270 375 552 c 1,7,-1
 6 594 l 1,8,9
 -70 675 -70 675 12 746 c 1,10,-1
 432 705 l 1,11,-1
 188 1018 l 1,12,13
 187 1097 187 1097 297 1130 c 1,14,-1
 516 867 l 1,15,16
 558 928 558 928 636 1131 c 1,17,0
 714 1189 714 1189 784 1073 c 1,1,2
EndSplineSet
Validated: 33
EndChar

StartChar: uni05DC
Encoding: 1500 1500 16
Width: 912
GlyphClass: 2
Flags: W
LayerCount: 2
Fore
SplineSet
962 1288 m 1,1,2
 719 1019 719 1019 186 276 c 1,3,4
 99 126 99 126 99 81 c 1,5,6
 123 30 123 30 157 30 c 1,7,8
 304 50 304 50 411 156 c 1,9,10
 548 197 548 197 546 70 c 1,11,12
 224 -220 224 -220 -20 -89 c 1,13,14
 -111 -28 -111 -28 -77 48 c 1,15,16
 -45 270 -45 270 353.5 797 c 128,-1,17
 752 1324 752 1324 829 1391 c 1,18,0
 971 1460 971 1460 962 1288 c 1,1,2
EndSplineSet
Validated: 33
EndChar

StartChar: uni05DD
Encoding: 1501 1501 17
Width: 1261
GlyphClass: 2
Flags: W
LayerCount: 2
Fore
SplineSet
238 939 m 1,0,1
 336 964 336 964 343 873 c 1,2,3
 233 699 233 699 192 565 c 1,4,5
 523 641 523 641 523 677 c 1,6,7
 591 924 591 924 661 924 c 1,8,9
 726 950 726 950 766 888 c 1,10,11
 703 740 703 740 670 615 c 1,12,-1
 937 656 l 1,13,14
 1054 888 1054 888 1090 888 c 1,15,16
 1183 925 1183 925 1185 824 c 0,17,18
 1185 730 1185 730 902 279 c 0,19,20
 605 -191 605 -191 58 -398 c 1,21,22
 -141 -369 -141 -369 35 -253 c 1,23,24
 274 -169 274 -169 530 80 c 0,25,26
 762 309 762 309 838 503 c 1,27,-1
 565 444 l 1,28,29
 464 411 464 411 464 487 c 1,30,-1
 136 400 l 2,31,32
 -39 354 -39 354 -8 466 c 1,33,34
 166 902 166 902 238 939 c 1,0,1
EndSplineSet
Validated: 33
EndChar

StartChar: uni05DE
Encoding: 1502 1502 18
Width: 1261
GlyphClass: 2
Flags: W
LayerCount: 2
Fore
SplineSet
238 939 m 1,0,1
 336 964 336 964 343 873 c 1,2,3
 233 699 233 699 192 565 c 1,4,5
 523 641 523 641 523 677 c 1,6,7
 591 924 591 924 661 924 c 1,8,9
 726 950 726 950 766 888 c 1,10,11
 703 740 703 740 670 615 c 1,12,-1
 937 656 l 1,13,14
 1054 888 1054 888 1090 888 c 1,15,16
 1183 925 1183 925 1185 824 c 0,17,18
 1185 730 1185 730 902 279 c 0,19,20
 605 -191 605 -191 58 -398 c 1,21,22
 -141 -369 -141 -369 35 -253 c 1,23,24
 274 -169 274 -169 530 80 c 0,25,26
 762 309 762 309 838 503 c 1,27,-1
 565 444 l 1,28,29
 464 411 464 411 464 487 c 1,30,-1
 136 400 l 2,31,32
 -39 354 -39 354 -8 466 c 1,33,34
 166 902 166 902 238 939 c 1,0,1
EndSplineSet
Validated: 33
EndChar

StartChar: uni05DF
Encoding: 1503 1503 19
Width: 896
GlyphClass: 2
Flags: W
LayerCount: 2
Fore
SplineSet
310 1025 m 1,1,-1
 214 829 l 1,2,3
 500 917 500 917 597 1033 c 1,4,5
 719 1055 719 1055 739 942 c 1,6,7
 711 786 711 786 422 309 c 1,8,9
 175 -28 175 -28 -13 -172 c 1,10,11
 -123 -265 -123 -265 -272 -264 c 1,12,13
 -358 -257 -358 -257 -342 -200 c 1,14,15
 -342 -155 -342 -155 -224 -112 c 1,16,17
 -61 -22 -61 -22 144 225 c 128,-1,18
 349 472 349 472 506 790 c 1,19,-1
 162 637 l 1,20,21
 -40 605 -40 605 -3 717 c 1,22,23
 59 803 59 803 91 869 c 128,-1,24
 123 935 123 935 162 1073 c 1,25,0
 266 1110 266 1110 310 1025 c 1,1,-1
EndSplineSet
Validated: 33
EndChar

StartChar: uni05E0
Encoding: 1504 1504 20
Width: 896
GlyphClass: 2
Flags: W
LayerCount: 2
Fore
SplineSet
310 1025 m 1,1,-1
 214 829 l 1,2,3
 500 917 500 917 597 1033 c 1,4,5
 719 1055 719 1055 739 942 c 1,6,7
 711 786 711 786 422 309 c 1,8,9
 175 -28 175 -28 -13 -172 c 1,10,11
 -123 -265 -123 -265 -272 -264 c 1,12,13
 -358 -257 -358 -257 -342 -200 c 1,14,15
 -342 -155 -342 -155 -224 -112 c 1,16,17
 -61 -22 -61 -22 144 225 c 128,-1,18
 349 472 349 472 506 790 c 1,19,-1
 162 637 l 1,20,21
 -40 605 -40 605 -3 717 c 1,22,23
 59 803 59 803 91 869 c 128,-1,24
 123 935 123 935 162 1073 c 1,25,0
 266 1110 266 1110 310 1025 c 1,1,-1
EndSplineSet
Validated: 33
EndChar

StartChar: uni05E1
Encoding: 1505 1505 21
Width: 1225
GlyphClass: 2
Flags: W
LayerCount: 2
Fore
SplineSet
41 1325 m 1,0,-1
 453 1346 l 1,1,2
 517 1445 517 1445 631 1356 c 1,3,-1
 991 1375 l 1,4,5
 1059 1324 1059 1324 989 1217 c 1,6,-1
 635 1202 l 1,7,-1
 629 1116 l 1,8,-1
 989 1118 l 1,9,10
 1074 1018 1074 1018 978 959 c 1,11,-1
 622 957 l 1,12,-1
 621 868 l 1,13,-1
 953 873 l 1,14,15
 1037 801 1037 801 956 728 c 1,16,-1
 619 711 l 1,17,-1
 589 6 l 1,18,19
 440 -83 440 -83 408 14 c 1,20,-1
 429 704 l 1,21,-1
 81 708 l 1,22,23
 19 773 19 773 81 850 c 1,24,-1
 428 858 l 1,25,-1
 434 941 l 1,26,-1
 56 940 l 1,27,28
 -12 1021 -12 1021 78 1088 c 1,29,-1
 433 1092 l 1,30,-1
 438 1179 l 1,31,-1
 56 1168 l 1,32,33
 -47 1251 -47 1251 41 1325 c 1,0,-1
EndSplineSet
Validated: 33
EndChar

StartChar: uni05E2
Encoding: 1506 1506 22
Width: 1002
GlyphClass: 2
Flags: W
LayerCount: 2
Fore
SplineSet
508 1004 m 0,0,1
 839 1024 839 1024 828 615 c 1,2,3
 828 456 828 456 678 212 c 128,-1,4
 528 -32 528 -32 295 -1 c 0,5,6
 122 19 122 19 44 136 c 0,7,8
 -9 219 -9 219 -9 272 c 1,9,10
 -30 483 -30 483 70 691 c 1,11,12
 242 991 242 991 508 1004 c 0,0,1
170 341 m 1,13,14
 175 211 175 211 307 179 c 1,15,16
 442 153 442 153 531 294 c 0,17,18
 650 479 650 479 646 607 c 1,19,20
 651 846 651 846 439 796 c 1,21,22
 210 697 210 697 170 341 c 1,13,14
EndSplineSet
Validated: 33
EndChar

StartChar: uni05E3
Encoding: 1507 1507 23
Width: 876
GlyphClass: 2
Flags: W
LayerCount: 2
Fore
SplineSet
571 1035 m 1,0,1
 663 1038 663 1038 662 938 c 1,2,3
 542 475 542 475 345 170 c 1,4,5
 118 -199 118 -199 -329 -422 c 1,6,7
 -434 -437 -434 -437 -439 -372 c 1,8,9
 -434 -275 -434 -275 -367 -258 c 1,10,11
 2 -38 2 -38 204 295 c 128,-1,12
 406 628 406 628 452 813 c 1,13,-1
 78 680 l 1,14,15
 -36 721 -36 721 16 831 c 1,16,-1
 571 1035 l 1,0,1
EndSplineSet
Validated: 33
EndChar

StartChar: uni05E4
Encoding: 1508 1508 24
Width: 876
GlyphClass: 2
Flags: W
LayerCount: 2
Fore
SplineSet
571 1035 m 1,0,1
 663 1038 663 1038 662 938 c 1,2,3
 542 475 542 475 345 170 c 1,4,5
 118 -199 118 -199 -329 -422 c 1,6,7
 -434 -437 -434 -437 -439 -372 c 1,8,9
 -434 -275 -434 -275 -367 -258 c 1,10,11
 2 -38 2 -38 204 295 c 128,-1,12
 406 628 406 628 452 813 c 1,13,-1
 78 680 l 1,14,15
 -36 721 -36 721 16 831 c 1,16,-1
 571 1035 l 1,0,1
EndSplineSet
Validated: 33
EndChar

StartChar: uni05E5
Encoding: 1509 1509 25
Width: 1836
GlyphClass: 2
Flags: W
LayerCount: 2
Fore
SplineSet
919 946 m 0,0,1
 1112 938 1112 938 1090 754 c 1,2,3
 1090 684 1090 684 1007 571 c 1,4,5
 1246 683 1246 683 1377 699 c 1,6,7
 1669 711 1669 711 1637 481 c 0,8,9
 1612 304 1612 304 1370 172 c 1,10,11
 1288 155 1288 155 1271 273 c 1,12,13
 1481 403 1481 403 1501 487 c 1,14,15
 1494 539 1494 539 1432 539 c 1,16,17
 1243 569 1243 569 784 284 c 1,18,19
 689 351 689 351 700 433 c 1,20,21
 922 615 922 615 917 679 c 1,22,23
 951 755 951 755 892 736 c 1,24,25
 804 754 804 754 372 540 c 1,26,-1
 191 436 l 1,27,-1
 224 247 l 1,28,29
 174 195 174 195 92 180 c 0,30,31
 48 170 48 170 30 317 c 2,32,-1
 -11 645 l 2,33,34
 -29 792 -29 792 21 790 c 1,35,-1
 136 815 l 1,36,37
 163 768 163 768 176 610 c 1,38,39
 381 742 381 742 652 864 c 1,40,41
 848 946 848 946 919 946 c 0,0,1
EndSplineSet
Validated: 33
EndChar

StartChar: uni05E6
Encoding: 1510 1510 26
Width: 1836
GlyphClass: 2
Flags: W
LayerCount: 2
Fore
SplineSet
919 946 m 0,0,1
 1112 938 1112 938 1090 754 c 1,2,3
 1090 684 1090 684 1007 571 c 1,4,5
 1246 683 1246 683 1377 699 c 1,6,7
 1669 711 1669 711 1637 481 c 0,8,9
 1612 304 1612 304 1370 172 c 1,10,11
 1288 155 1288 155 1271 273 c 1,12,13
 1481 403 1481 403 1501 487 c 1,14,15
 1494 539 1494 539 1432 539 c 1,16,17
 1243 569 1243 569 784 284 c 1,18,19
 689 351 689 351 700 433 c 1,20,21
 922 615 922 615 917 679 c 1,22,23
 951 755 951 755 892 736 c 1,24,25
 804 754 804 754 372 540 c 1,26,-1
 191 436 l 1,27,-1
 224 247 l 1,28,29
 174 195 174 195 92 180 c 0,30,31
 48 170 48 170 30 317 c 2,32,-1
 -11 645 l 2,33,34
 -29 792 -29 792 21 790 c 1,35,-1
 136 815 l 1,36,37
 163 768 163 768 176 610 c 1,38,39
 381 742 381 742 652 864 c 1,40,41
 848 946 848 946 919 946 c 0,0,1
EndSplineSet
Validated: 33
EndChar

StartChar: uni05E7
Encoding: 1511 1511 27
Width: 1398
GlyphClass: 2
Flags: W
LayerCount: 2
Fore
SplineSet
666 1401 m 1,0,1
 1195 1334 1195 1334 1195 1065 c 1,2,3
 1203 860 1203 860 964 737 c 1,4,5
 856 696 856 696 741 692 c 1,6,7
 683 23 683 23 629 -7 c 1,8,9
 504 -130 504 -130 467 -7 c 1,10,11
 557 501 557 501 549 692 c 1,12,13
 77 680 77 680 10 939 c 1,14,-1
 10 1005 l 2,15,16
 10 1141 10 1141 140 1239 c 0,17,18
 324 1378 324 1378 539 1401 c 1,19,-1
 666 1401 l 1,0,1
685 1236 m 1,20,21
 733 1074 733 1074 730 878 c 1,22,23
 939 878 939 878 1013 1028 c 1,24,25
 1013 1231 1013 1231 685 1236 c 1,20,21
553 866 m 1,27,28
 557 1065 557 1065 495 1228 c 1,29,30
 366 1205 366 1205 271 1139 c 0,31,32
 187 1082 187 1082 187 990 c 1,33,26
 226 845 226 845 553 866 c 1,27,28
EndSplineSet
Validated: 33
EndChar

StartChar: uni05E8
Encoding: 1512 1512 28
Width: 1134
GlyphClass: 2
Flags: W
LayerCount: 2
Fore
SplineSet
702 1398 m 0,0,1
 745 1398 745 1398 793.5 1303 c 128,-1,2
 842 1208 842 1208 903 884.5 c 128,-1,3
 964 561 964 561 958 239.5 c 128,-1,4
 952 -82 952 -82 900 -82 c 1,5,-1
 769 -98 l 1,6,7
 778 -57 778 -57 777.5 156.5 c 128,-1,8
 777 370 777 370 716 745 c 1,9,10
 529 691 529 691 278 721 c 128,-1,11
 27 751 27 751 4 856 c 1,12,-1
 4 918 l 1,13,14
 13 1065 13 1065 255 1236 c 1,15,16
 532 1398 532 1398 702 1398 c 0,0,1
258 890 m 0,18,19
 543 832 543 832 680 927 c 1,20,21
 631 1193 631 1193 595 1225 c 1,22,23
 479 1207 479 1207 308 1068 c 0,24,17
 124 920 124 920 258 890 c 0,18,19
EndSplineSet
Validated: 33
EndChar

StartChar: uni05E9
Encoding: 1513 1513 29
Width: 1556
GlyphClass: 2
Flags: W
LayerCount: 2
Fore
SplineSet
108 909 m 0,0,1
 160 909 160 909 160 843 c 0,2,3
 158 706 158 706 203.5 517.5 c 128,-1,4
 249 329 249 329 313 314 c 1,5,6
 477 471 477 471 535 614 c 1,7,8
 579 762 579 762 622 869 c 1,9,-1
 701 876 l 1,10,11
 766 876 766 876 766 800 c 0,12,13
 766 765 766 765 910 493 c 1,14,15
 933 421 933 421 1034 304 c 1,16,17
 1047 304 1047 304 1087 356.5 c 128,-1,18
 1127 409 1127 409 1179 543 c 128,-1,19
 1231 677 1231 677 1288 869 c 1,20,21
 1418 869 1418 869 1418 817 c 0,22,23
 1421 686 1421 686 1327 459 c 0,24,25
 1298 383 1298 383 1194 206 c 1,26,27
 1088 84 1088 84 1046 94 c 1,28,29
 975 70 975 70 844 270 c 1,30,-1
 675 577 l 1,31,32
 606 427 606 427 510 307 c 1,33,34
 361 101 361 101 311 101 c 1,35,36
 169 88 169 88 23 582 c 1,37,38
 -18 773 -18 773 -3 869 c 1,39,40
 17 909 17 909 108 909 c 0,0,1
EndSplineSet
Validated: 33
EndChar

StartChar: uni05EA
Encoding: 1514 1514 30
Width: 1096
GlyphClass: 2
Flags: W
LayerCount: 2
Fore
SplineSet
262 1057 m 0,0,1
 322 1057 322 1057 396 857 c 1,2,-1
 462 749 l 1,3,-1
 770 1008 l 1,4,5
 915 990 915 990 896 886 c 1,6,-1
 667 672 l 1,7,8
 573 597 573 597 573 576 c 1,9,10
 670 393 670 393 854 205 c 1,11,12
 837 93 837 93 733 87 c 1,13,14
 628 122 628 122 415 434 c 1,15,16
 271 315 271 315 103 220 c 1,17,18
 -31 204 -31 204 -30 349 c 1,19,20
 145 430 145 430 311 608 c 1,21,22
 219 759 219 759 141 975 c 1,23,24
 158 1052 158 1052 262 1057 c 0,0,1
EndSplineSet
Validated: 33
EndChar

StartChar: uni05F3
Encoding: 1523 1523 31
Width: 343
Flags: W
LayerCount: 2
Fore
SplineSet
127 899 m 1,0,-1
 15 952 l 1,1,2
 109 1078 109 1078 109 1230 c 2,3,-1
 109 1425 l 1,4,-1
 278 1425 l 1,5,-1
 277 1244 l 2,6,7
 277 1143 277 1143 235 1051.5 c 128,-1,8
 193 960 193 960 127 899 c 1,0,-1
EndSplineSet
Validated: 1
EndChar

StartChar: uni05F4
Encoding: 1524 1524 32
Width: 672
Flags: W
LayerCount: 2
Fore
SplineSet
140 899 m 1,0,-1
 27 952 l 1,1,2
 121 1076 121 1076 121 1230 c 2,3,-1
 121 1425 l 1,4,-1
 290 1425 l 1,5,-1
 290 1244 l 2,6,7
 290 1143 290 1143 247.5 1051.5 c 128,-1,8
 205 960 205 960 140 899 c 1,0,-1
442 899 m 1,9,-1
 329 952 l 1,10,11
 423 1076 423 1076 423 1230 c 2,12,-1
 423 1425 l 1,13,-1
 592 1425 l 1,14,-1
 591 1244 l 2,15,16
 591 1143 591 1143 549 1051.5 c 128,-1,17
 507 960 507 960 442 899 c 1,9,-1
EndSplineSet
Validated: 1
EndChar
